<svg xmlns="http://www.w3.org/2000/svg" viewBox="0 0 512 512" width="512" height="512">
  <g fill="none" stroke="#1c1917" stroke-width="4" stroke-linecap="round" stroke-linejoin="round">
    <path d="M256 480V150"/>
    <ellipse cx="256" cy="100" rx="60" ry="40"/>
    <circle cx="230" cy="90" r="8"/>
    <circle cx="256" cy="85" r="8"/>
    <circle cx="282" cy="90" r="8"/>
    <circle cx="240" cy="105" r="6"/>
    <circle cx="272" cy="105" r="6"/>
    <circle cx="256" cy="115" r="6"/>
    <path d="M200 200c-25 10-40 35-30 55"/>
    <path d="M312 200c25 10 40 35 30 55"/>
    <path d="M185 300c-22 8-36 30-27 48"/>
    <path d="M327 300c22 8 36 30 27 48"/>
    <path d="M175 400c-20 7-32 27-24 43"/>
    <path d="M337 400c20 7 32 27 24 43"/>
  </g>
</svg>
