<svg xmlns="http://www.w3.org/2000/svg" viewBox="0 0 512 512" width="512" height="512">
  <g fill="none" stroke="#1c1917" stroke-width="4" stroke-linecap="round" stroke-linejoin="round">
    <circle cx="256" cy="180" r="20"/>
    <path d="M256 160c-25-10-55 5-55 40s35 45 55 30"/>
    <path d="M256 160c25-10 55 5 55 40s-35 45-55 30"/>
    <path d="M256 160c-40-20-80 10-75 60s55 55 75 35"/>
    <path d="M256 160c40-20 80 10 75 60s-55 55-75 35"/>
    <path d="M256 160c-50-25-100 15-90 75s70 65 90 42"/>
    <path d="M256 160c50-25 100 15 90 75s-70 65-90 42"/>
    <path d="M256 300V450"/>
    <path d="M220 360c-30-5-55 20-48 50"/>
    <path d="M292 380c30-5 55 20 48 50"/>
  </g>
</svg>
