<svg xmlns="http://www.w3.org/2000/svg" viewBox="0 0 512 512" width="512" height="512">
  <g fill="none" stroke="#1c1917" stroke-width="4" stroke-linecap="round" stroke-linejoin="round">
    <path d="M256 480V180"/>
    <path d="M256 180c-30-40-80-60-120-40s-50 70-20 110c20 30 60 40 90 30"/>
    <path d="M256 180c30-40 80-60 120-40s50 70 20 110c-20 30-60 40-90 30"/>
    <path d="M256 280c-25-35-65-50-95-35s-40 55-15 85c15 25 50 35 75 25"/>
    <path d="M256 280c25-35 65-50 95-35s40 55 15 85c-15 25-50 35-75 25"/>
    <path d="M256 360c-20-25-50-40-75-28s-32 45-12 68c12 18 40 28 60 20"/>
    <path d="M256 360c20-25 50-40 75-28s32 45 12 68c-12 18-40 28-60 20"/>
  </g>
</svg>
