<svg xmlns="http://www.w3.org/2000/svg" viewBox="0 0 512 512" width="512" height="512">
  <g fill="none" stroke="#1c1917" stroke-width="4" stroke-linecap="round" stroke-linejoin="round">
    <path d="M256 480V100"/>
    <path d="M256 100c-5-25 5-55 25-75"/>
    <path d="M256 100c5-25-5-55-25-75"/>
    <path d="M190 150c10-15 30-20 50-15 10-20 25-25 40-20"/>
    <path d="M322 150c-10-15-30-20-50-15-10-20-25-25-40-20"/>
    <path d="M175 220c8-12 25-18 42-14 8-16 22-22 35-18"/>
    <path d="M337 220c-8-12-25-18-42-14-8-16-22-22-35-18"/>
    <path d="M165 300c7-10 22-16 38-12 7-14 20-20 32-16"/>
    <path d="M347 300c-7-10-22-16-38-12-7-14-20-20-32-16"/>
    <path d="M160 380c6-9 20-14 34-11 6-13 18-18 29-14"/>
    <path d="M352 380c-6-9-20-14-34-11-6-13-18-18-29-14"/>
  </g>
</svg>
