<svg xmlns="http://www.w3.org/2000/svg" viewBox="0 0 512 512" width="512" height="512">
  <g fill="none" stroke="#1c1917" stroke-width="4" stroke-linecap="round" stroke-linejoin="round">
    <path d="M256 480V120"/>
    <path d="M256 120c-10-30-5-60 10-80"/>
    <path d="M200 160c15 0 30 10 40 25M312 160c-15 0-30 10-40 25"/>
    <path d="M180 200c12 0 25 8 35 20M332 200c-12 0-25 8-35 20"/>
    <path d="M165 250c10 0 22 7 30 18M347 250c-10 0-22 7-30 18"/>
    <path d="M155 305c8 0 20 6 28 16M357 305c-8 0-20 6-28 16"/>
    <path d="M150 360c7 0 18 5 25 14M362 360c-7 0-18 5-25 14"/>
    <path d="M148 415c6 0 16 4 22 12M364 415c-6 0-16 4-22 12"/>
    <circle cx="256" cy="95" r="18"/>
    <circle cx="240" cy="75" r="12"/>
    <circle cx="272" cy="75" r="12"/>
  </g>
</svg>
