<svg xmlns="http://www.w3.org/2000/svg" viewBox="0 0 512 512" width="512" height="512">
  <g fill="none" stroke="#1c1917" stroke-width="4" stroke-linecap="round" stroke-linejoin="round">
    <path d="M256 480V200"/>
    <circle cx="256" cy="120" r="30"/>
    <path d="M256 90V50"/>
    <path d="M226 120h-40"/>
    <path d="M286 120h40"/>
    <path d="M235 99l-28-28"/>
    <path d="M277 99l28-28"/>
    <path d="M235 141l-28 28"/>
    <path d="M277 141l28 28"/>
    <path d="M200 280c20 0 40 15 56 35"/>
    <path d="M312 280c-20 0-40 15-56 35"/>
    <path d="M185 360c18 0 38 12 52 30"/>
    <path d="M327 360c-18 0-38 12-52 30"/>
  </g>
</svg>
