<svg xmlns="http://www.w3.org/2000/svg" viewBox="0 0 512 512" width="512" height="512">
  <g fill="none" stroke="#1c1917" stroke-width="4" stroke-linecap="round" stroke-linejoin="round">
    <path d="M256 300c-30-10-60 10-70 50s20 60 50 50"/>
    <path d="M256 300c30 10 50 40 40 70s-40 40-60 20"/>
    <path d="M186 350c-25 0-50 20-50 50s30 40 55 30"/>
    <path d="M326 370c20-10 50 0 55 35s-20 45-45 35"/>
    <path d="M256 300c-10-40 10-80 40-100"/>
    <path d="M256 300c10-40 30-70 60-80"/>
    <path d="M296 200c5-30 25-50 50-55"/>
    <path d="M316 220c10-25 35-40 55-35"/>
  </g>
</svg>
