<svg xmlns="http://www.w3.org/2000/svg" viewBox="0 0 512 512" width="512" height="512">
  <g fill="none" stroke="#1c1917" stroke-width="4" stroke-linecap="round" stroke-linejoin="round">
    <path d="M256 480V150"/>
    <path d="M256 150c-50-15-95 20-85 70s65 55 85 30"/>
    <path d="M256 150c50-15 95 20 85 70s-65 55-85 30"/>
    <path d="M256 290c-40-12-78 16-70 56s54 45 70 24"/>
    <path d="M256 290c40-12 78 16 70 56s-54 45-70 24"/>
    <path d="M256 400c-32-10-62 13-56 45s43 36 56 19"/>
    <path d="M256 400c32-10 62 13 56 45s-43 36-56 19"/>
    <path d="M256 150c-10-35 5-70 25-90"/>
    <path d="M256 150c10-35-5-70-25-90"/>
  </g>
</svg>
