<svg xmlns="http://www.w3.org/2000/svg" viewBox="0 0 512 512" width="512" height="512">
  <g fill="none" stroke="#1c1917" stroke-width="4" stroke-linecap="round" stroke-linejoin="round">
    <path d="M256 480V180"/>
    <path d="M256 180c-40-30-90-20-100 30s40 70 80 50"/>
    <path d="M256 180c40-30 90-20 100 30s-40 70-80 50"/>
    <path d="M200 300c-30-20-70-15-78 22s32 55 62 40"/>
    <path d="M312 300c30-20 70-15 78 22s-32 55-62 40"/>
    <path d="M256 100c-15-30-5-60 15-80"/>
    <path d="M256 100c15-30 5-60-15-80"/>
    <circle cx="256" cy="75" r="12"/>
    <circle cx="235" cy="60" r="8"/>
    <circle cx="277" cy="60" r="8"/>
  </g>
</svg>
