<svg xmlns="http://www.w3.org/2000/svg" viewBox="0 0 512 512" width="512" height="512">
  <g fill="none" stroke="#1c1917" stroke-width="4" stroke-linecap="round" stroke-linejoin="round">
    <path d="M256 480V280"/>
    <path d="M256 280c-40 0-80-40-70-90s60-60 70-30"/>
    <path d="M256 280c40 0 80-40 70-90s-60-60-70-30"/>
    <path d="M256 280c-20 0-50-35-45-75s40-50 45-25"/>
    <path d="M256 280c20 0 50-35 45-75s-40-50-45-25"/>
    <path d="M256 160c0-40 10-80 5-110"/>
    <path d="M246 55c-5 20-20 15-25 0"/>
    <path d="M266 55c5 20 20 15 25 0"/>
    <path d="M256 55c0-20-5-25-5-35"/>
  </g>
</svg>
