<svg xmlns="http://www.w3.org/2000/svg" viewBox="0 0 512 512" width="512" height="512">
  <g fill="none" stroke="#1c1917" stroke-width="4" stroke-linecap="round" stroke-linejoin="round">
    <path d="M256 420c-50 10-90-30-85-90s60-80 85-50"/>
    <path d="M256 420c50 10 90-30 85-90s-60-80-85-50"/>
    <path d="M256 280V200"/>
    <path d="M256 200c-60-10-100 40-85 90"/>
    <path d="M256 200c60-10 100 40 85 90"/>
    <path d="M256 200c-35-30-40-80-15-115"/>
    <path d="M256 200c35-30 40-80 15-115"/>
    <path d="M241 85c-20 5-35-10-30-30"/>
    <path d="M271 85c20 5 35-10 30-30"/>
  </g>
</svg>
