<svg xmlns="http://www.w3.org/2000/svg" viewBox="0 0 512 512" width="512" height="512">
  <g fill="none" stroke="#1c1917" stroke-width="4" stroke-linecap="round" stroke-linejoin="round">
    <path d="M256 480V120"/>
    <path d="M256 120c-8-25 0-55 20-80"/>
    <path d="M256 120c8-25 0-55-20-80"/>
    <path d="M195 160c10-12 28-18 45-12 8-15 22-20 35-16"/>
    <path d="M317 160c-10-12-28-18-45-12-8-15-22-20-35-16"/>
    <path d="M180 230c8-10 24-16 40-11 7-13 20-18 32-14"/>
    <path d="M332 230c-8-10-24-16-40-11-7-13-20-18-32-14"/>
    <path d="M168 310c7-9 22-14 36-10 6-12 18-16 29-13"/>
    <path d="M344 310c-7-9-22-14-36-10-6-12-18-16-29-13"/>
    <path d="M160 390c6-8 20-13 33-9 5-11 16-15 26-12"/>
    <path d="M352 390c-6-8-20-13-33-9-5-11-16-15-26-12"/>
  </g>
</svg>
