<svg xmlns="http://www.w3.org/2000/svg" viewBox="0 0 512 512" width="512" height="512">
  <g fill="none" stroke="#1c1917" stroke-width="4" stroke-linecap="round" stroke-linejoin="round">
    <path d="M256 100l45 78-45 78-45-78z"/>
    <path d="M211 178l-45 78 45 78 45-78z"/>
    <path d="M301 178l45 78-45 78-45-78z"/>
    <path d="M166 256l-45 78 45 78 45-78z"/>
    <path d="M256 256l45 78-45 78-45-78z"/>
    <path d="M346 256l45 78-45 78-45-78z"/>
    <path d="M211 334l-45 78 45 78 45-78z"/>
    <path d="M301 334l45 78-45 78-45-78z"/>
  </g>
</svg>
