<svg xmlns="http://www.w3.org/2000/svg" viewBox="0 0 512 512" width="512" height="512">
  <g fill="none" stroke="#1c1917" stroke-width="4" stroke-linecap="round" stroke-linejoin="round">
    <path d="M256 480V150"/>
    <path d="M256 150c-20-40-10-80 15-110"/>
    <path d="M256 150c20-40 10-80-15-110"/>
    <path d="M256 150c-40-30-30-70-5-100"/>
    <path d="M256 150c40-30 30-70 5-100"/>
    <circle cx="271" cy="55" r="10"/>
    <circle cx="241" cy="55" r="10"/>
    <circle cx="301" cy="70" r="8"/>
    <circle cx="211" cy="70" r="8"/>
    <path d="M190 250c-35 15-55 50-40 85"/>
    <path d="M322 250c35 15 55 50 40 85"/>
    <path d="M175 380c-30 12-48 45-35 75"/>
    <path d="M337 380c30 12 48 45 35 75"/>
  </g>
</svg>
